<svg width="185" height="50" viewBox="0 0 185 50" fill="none" xmlns="http://www.w3.org/2000/svg">
<rect width="50" height="50" rx="7" fill="#0DCAF0"/>
<path d="M9.00852 35V14.6364H16.6449C18.2093 14.6364 19.5218 14.928 20.5824 15.5114C21.6496 16.0947 22.455 16.8968 22.9986 17.9176C23.5488 18.9318 23.8239 20.0852 23.8239 21.3778C23.8239 22.6837 23.5488 23.8437 22.9986 24.858C22.4484 25.8722 21.6364 26.6709 20.5625 27.2543C19.4886 27.831 18.1662 28.1193 16.5952 28.1193H11.5341V25.0866H16.098C17.0128 25.0866 17.7618 24.9276 18.3452 24.6094C18.9285 24.2912 19.3594 23.8537 19.6378 23.2969C19.9228 22.7401 20.0653 22.1004 20.0653 21.3778C20.0653 20.6553 19.9228 20.0189 19.6378 19.4688C19.3594 18.9186 18.9252 18.491 18.3352 18.1861C17.7519 17.8745 16.9995 17.7188 16.0781 17.7188H12.6974V35H9.00852ZM27.0281 35V14.6364H30.6275V22.2528H30.7766C30.9622 21.8816 31.2241 21.4872 31.5621 21.0696C31.9002 20.6454 32.3576 20.2841 32.9343 19.9858C33.511 19.6809 34.2468 19.5284 35.1417 19.5284C36.3216 19.5284 37.3855 19.83 38.3335 20.4332C39.288 21.0298 40.0437 21.9148 40.6005 23.0881C41.1639 24.2547 41.4457 25.6866 41.4457 27.3835C41.4457 29.0606 41.1706 30.4858 40.6204 31.6591C40.0702 32.8324 39.3211 33.7273 38.3732 34.3438C37.4253 34.9602 36.3514 35.2685 35.1516 35.2685C34.2766 35.2685 33.5508 35.1226 32.9741 34.831C32.3974 34.5393 31.9334 34.188 31.582 33.777C31.2373 33.3594 30.9689 32.965 30.7766 32.5938H30.5678V35H27.0281ZM30.5579 27.3636C30.5579 28.3513 30.6971 29.2164 30.9755 29.9588C31.2605 30.7012 31.6682 31.2812 32.1985 31.6989C32.7354 32.1098 33.3851 32.3153 34.1474 32.3153C34.9428 32.3153 35.609 32.1032 36.146 31.679C36.6829 31.2481 37.0872 30.6615 37.359 29.919C37.6374 29.17 37.7766 28.3182 37.7766 27.3636C37.7766 26.4157 37.6407 25.5739 37.369 24.8381C37.0972 24.1023 36.6928 23.5256 36.1559 23.108C35.619 22.6903 34.9495 22.4815 34.1474 22.4815C33.3784 22.4815 32.7255 22.6837 32.1886 23.0881C31.6516 23.4924 31.244 24.0592 30.9656 24.7884C30.6938 25.5175 30.5579 26.3759 30.5579 27.3636Z" fill="#F5F5F5"/>
<path d="M62.0085 35V14.6364H69.6449C71.2093 14.6364 72.5218 14.928 73.5824 15.5114C74.6496 16.0947 75.455 16.8968 75.9986 17.9176C76.5488 18.9318 76.8239 20.0852 76.8239 21.3778C76.8239 22.6837 76.5488 23.8437 75.9986 24.858C75.4484 25.8722 74.6364 26.6709 73.5625 27.2543C72.4886 27.831 71.1662 28.1193 69.5952 28.1193H64.5341V25.0866H69.098C70.0128 25.0866 70.7618 24.9276 71.3452 24.6094C71.9285 24.2912 72.3594 23.8537 72.6378 23.2969C72.9228 22.7401 73.0653 22.1004 73.0653 21.3778C73.0653 20.6553 72.9228 20.0189 72.6378 19.4688C72.3594 18.9186 71.9252 18.491 71.3352 18.1861C70.7519 17.8745 69.9995 17.7188 69.0781 17.7188H65.6974V35H62.0085ZM83.4684 14.6364V35H79.869V14.6364H83.4684ZM91.5646 35.3082C90.5968 35.3082 89.7251 35.1359 88.9496 34.7912C88.1806 34.4399 87.5708 33.9228 87.12 33.2401C86.6759 32.5573 86.4538 31.7154 86.4538 30.7145C86.4538 29.8527 86.6129 29.1402 86.9311 28.5767C87.2493 28.0133 87.6835 27.5625 88.2337 27.2244C88.7839 26.8864 89.4036 26.6312 90.093 26.4588C90.7891 26.2798 91.5083 26.1506 92.2507 26.071C93.1456 25.9782 93.8714 25.8954 94.4283 25.8224C94.9851 25.7429 95.3894 25.6236 95.6413 25.4645C95.8999 25.2988 96.0291 25.0436 96.0291 24.6989V24.6392C96.0291 23.8902 95.8071 23.3101 95.3629 22.8991C94.9188 22.4882 94.2791 22.2827 93.4439 22.2827C92.5623 22.2827 91.8629 22.4749 91.3459 22.8594C90.8355 23.2438 90.4908 23.6979 90.3118 24.2216L86.951 23.7443C87.2161 22.8163 87.6536 22.0407 88.2635 21.4176C88.8733 20.7879 89.6191 20.3172 90.5007 20.0057C91.3823 19.6875 92.3568 19.5284 93.424 19.5284C94.1598 19.5284 94.8923 19.6146 95.6214 19.7869C96.3506 19.9593 97.0168 20.2443 97.62 20.642C98.2232 21.0331 98.7072 21.5668 99.0717 22.2429C99.4429 22.919 99.6286 23.7642 99.6286 24.7784V35H96.1683V32.902H96.049C95.8303 33.3262 95.522 33.724 95.1243 34.0952C94.7332 34.4598 94.2393 34.7547 93.6428 34.9801C93.0528 35.1989 92.3601 35.3082 91.5646 35.3082ZM92.4993 32.6634C93.2218 32.6634 93.8482 32.5208 94.3786 32.2358C94.9089 31.9441 95.3165 31.5597 95.6016 31.0824C95.8932 30.6051 96.0391 30.0848 96.0391 29.5213V27.7216C95.9264 27.8144 95.7341 27.9006 95.4624 27.9801C95.1972 28.0597 94.8989 28.1293 94.5675 28.1889C94.236 28.2486 93.9079 28.3016 93.5831 28.348C93.2583 28.3944 92.9766 28.4342 92.7379 28.4673C92.201 28.5402 91.7204 28.6596 91.2962 28.8253C90.8719 28.991 90.5372 29.223 90.2919 29.5213C90.0466 29.813 89.924 30.1908 89.924 30.6548C89.924 31.3177 90.166 31.8182 90.6499 32.1562C91.1338 32.4943 91.7502 32.6634 92.4993 32.6634ZM104.938 40.7273C104.448 40.7273 103.994 40.6875 103.576 40.608C103.165 40.535 102.837 40.4489 102.592 40.3494L103.427 37.5455C103.951 37.6979 104.418 37.7708 104.829 37.7642C105.24 37.7576 105.601 37.6283 105.913 37.3764C106.231 37.1312 106.499 36.7202 106.718 36.1435L107.026 35.3182L101.488 19.7273H105.306L108.826 31.2614H108.985L112.515 19.7273H116.343L110.228 36.8494C109.943 37.6581 109.565 38.3509 109.094 38.9276C108.624 39.5109 108.047 39.955 107.364 40.2599C106.688 40.5715 105.879 40.7273 104.938 40.7273ZM118.993 35V14.6364H122.592V22.2528H122.741C122.927 21.8816 123.189 21.4872 123.527 21.0696C123.865 20.6454 124.322 20.2841 124.899 19.9858C125.476 19.6809 126.212 19.5284 127.107 19.5284C128.286 19.5284 129.35 19.83 130.298 20.4332C131.253 21.0298 132.009 21.9148 132.565 23.0881C133.129 24.2547 133.411 25.6866 133.411 27.3835C133.411 29.0606 133.135 30.4858 132.585 31.6591C132.035 32.8324 131.286 33.7273 130.338 34.3438C129.39 34.9602 128.316 35.2685 127.116 35.2685C126.241 35.2685 125.516 35.1226 124.939 34.831C124.362 34.5393 123.898 34.188 123.547 33.777C123.202 33.3594 122.934 32.965 122.741 32.5938H122.533V35H118.993ZM122.523 27.3636C122.523 28.3513 122.662 29.2164 122.94 29.9588C123.225 30.7012 123.633 31.2812 124.163 31.6989C124.7 32.1098 125.35 32.3153 126.112 32.3153C126.908 32.3153 127.574 32.1032 128.111 31.679C128.648 31.2481 129.052 30.6615 129.324 29.919C129.602 29.17 129.741 28.3182 129.741 27.3636C129.741 26.4157 129.606 25.5739 129.334 24.8381C129.062 24.1023 128.658 23.5256 128.121 23.108C127.584 22.6903 126.914 22.4815 126.112 22.4815C125.343 22.4815 124.69 22.6837 124.153 23.0881C123.616 23.4924 123.209 24.0592 122.93 24.7884C122.659 25.5175 122.523 26.3759 122.523 27.3636ZM143.132 35.2983C141.641 35.2983 140.348 34.9702 139.255 34.3139C138.161 33.6577 137.312 32.7396 136.709 31.5597C136.113 30.3797 135.814 29.0009 135.814 27.4233C135.814 25.8456 136.113 24.4635 136.709 23.277C137.312 22.0904 138.161 21.169 139.255 20.5128C140.348 19.8565 141.641 19.5284 143.132 19.5284C144.624 19.5284 145.917 19.8565 147.01 20.5128C148.104 21.169 148.949 22.0904 149.546 23.277C150.149 24.4635 150.451 25.8456 150.451 27.4233C150.451 29.0009 150.149 30.3797 149.546 31.5597C148.949 32.7396 148.104 33.6577 147.01 34.3139C145.917 34.9702 144.624 35.2983 143.132 35.2983ZM143.152 32.4148C143.961 32.4148 144.637 32.1927 145.181 31.7486C145.724 31.2978 146.129 30.6946 146.394 29.9389C146.666 29.1832 146.801 28.3414 146.801 27.4134C146.801 26.4787 146.666 25.6335 146.394 24.8778C146.129 24.1155 145.724 23.509 145.181 23.0582C144.637 22.6075 143.961 22.3821 143.152 22.3821C142.324 22.3821 141.634 22.6075 141.084 23.0582C140.541 23.509 140.133 24.1155 139.861 24.8778C139.596 25.6335 139.463 26.4787 139.463 27.4134C139.463 28.3414 139.596 29.1832 139.861 29.9389C140.133 30.6946 140.541 31.2978 141.084 31.7486C141.634 32.1927 142.324 32.4148 143.152 32.4148ZM160.168 35.2983C158.676 35.2983 157.384 34.9702 156.29 34.3139C155.196 33.6577 154.348 32.7396 153.744 31.5597C153.148 30.3797 152.849 29.0009 152.849 27.4233C152.849 25.8456 153.148 24.4635 153.744 23.277C154.348 22.0904 155.196 21.169 156.29 20.5128C157.384 19.8565 158.676 19.5284 160.168 19.5284C161.659 19.5284 162.952 19.8565 164.045 20.5128C165.139 21.169 165.984 22.0904 166.581 23.277C167.184 24.4635 167.486 25.8456 167.486 27.4233C167.486 29.0009 167.184 30.3797 166.581 31.5597C165.984 32.7396 165.139 33.6577 164.045 34.3139C162.952 34.9702 161.659 35.2983 160.168 35.2983ZM160.188 32.4148C160.996 32.4148 161.672 32.1927 162.216 31.7486C162.759 31.2978 163.164 30.6946 163.429 29.9389C163.701 29.1832 163.837 28.3414 163.837 27.4134C163.837 26.4787 163.701 25.6335 163.429 24.8778C163.164 24.1155 162.759 23.509 162.216 23.0582C161.672 22.6075 160.996 22.3821 160.188 22.3821C159.359 22.3821 158.67 22.6075 158.119 23.0582C157.576 23.509 157.168 24.1155 156.896 24.8778C156.631 25.6335 156.499 26.4787 156.499 27.4134C156.499 28.3414 156.631 29.1832 156.896 29.9389C157.168 30.6946 157.576 31.2978 158.119 31.7486C158.67 32.1927 159.359 32.4148 160.188 32.4148ZM173.822 30.2074L173.812 25.8622H174.389L179.877 19.7273H184.083L177.332 27.2443H176.586L173.822 30.2074ZM170.541 35V14.6364H174.14V35H170.541ZM180.126 35L175.154 28.0497L177.581 25.5142L184.431 35H180.126Z" fill="#332D2D"/>
</svg>
