<svg width="226" height="50" viewBox="0 0 226 50" fill="none" xmlns="http://www.w3.org/2000/svg">
<rect width="50" height="50" rx="7" fill="#0DCAF0"/>
<path d="M6.25 18H19.7734C20.8906 18 21.832 18.0508 22.5977 18.1523C23.3711 18.2461 24.0078 18.3906 24.5078 18.5859C25.0078 18.7812 25.3906 19.0234 25.6562 19.3125C25.9297 19.6016 26.1289 19.9414 26.2539 20.332C26.3789 20.7227 26.4492 21.1602 26.4648 21.6445C26.4883 22.1289 26.5 22.6641 26.5 23.25C26.5 23.8594 26.4844 24.4219 26.4531 24.9375C26.4297 25.4531 26.3398 25.9219 26.1836 26.3438C26.0352 26.7578 25.793 27.125 25.457 27.4453C25.1289 27.7578 24.6562 28.0195 24.0391 28.2305C23.4297 28.4414 22.6523 28.6016 21.707 28.7109C20.7695 28.8203 19.6133 28.875 18.2383 28.875H8.5V36H6.25V18ZM8.5 27H18.2383C19.2383 27 20.0781 26.9844 20.7578 26.9531C21.4453 26.9141 22.0117 26.8477 22.457 26.7539C22.9023 26.6602 23.2461 26.5273 23.4883 26.3555C23.7305 26.1836 23.9062 25.957 24.0156 25.6758C24.1328 25.3945 24.1992 25.0586 24.2148 24.668C24.2383 24.2695 24.25 23.7969 24.25 23.25C24.25 22.7422 24.2383 22.3047 24.2148 21.9375C24.1992 21.5703 24.1328 21.2617 24.0156 21.0117C23.9062 20.7617 23.7305 20.5625 23.4883 20.4141C23.2461 20.2656 22.9023 20.1523 22.457 20.0742C22.0117 19.9883 21.4453 19.9336 20.7578 19.9102C20.0781 19.8867 19.2383 19.875 18.2383 19.875H8.5V27ZM37 36.2578C35.9219 36.2578 35.0234 36.1836 34.3047 36.0352C33.5938 35.8945 33.0117 35.7422 32.5586 35.5781C32.1055 35.4062 31.7617 35.1406 31.5273 34.7812C31.293 34.4141 31.1172 34.1289 31 33.9258V36H28.75V18H31V23.7773C31.1016 23.6133 31.2695 23.4375 31.5039 23.25C31.7461 23.0547 32.0938 22.875 32.5469 22.7109C33.0078 22.5391 33.5977 22.3984 34.3164 22.2891C35.0352 22.1797 35.9297 22.125 37 22.125C38.5 22.125 39.7734 22.2383 40.8203 22.4648C41.8672 22.6914 42.7188 23.0781 43.375 23.625C44.0312 24.1719 44.5078 24.9062 44.8047 25.8281C45.1016 26.7422 45.25 27.8906 45.25 29.2734C45.25 30.6328 45.1016 31.7617 44.8047 32.6602C44.5078 33.5586 44.0312 34.2734 43.375 34.8047C42.7188 35.3359 41.8672 35.7109 40.8203 35.9297C39.7734 36.1484 38.5 36.2578 37 36.2578ZM37 34.5C37.875 34.5 38.6289 34.4727 39.2617 34.418C39.9023 34.3633 40.4453 34.2656 40.8906 34.125C41.3359 33.9844 41.6953 33.7891 41.9688 33.5391C42.25 33.2891 42.4648 32.9727 42.6133 32.5898C42.7695 32.1992 42.8711 31.7344 42.918 31.1953C42.9727 30.6484 43 30.0078 43 29.2734C43 28.5391 42.9727 27.8984 42.918 27.3516C42.8711 26.8047 42.7695 26.3398 42.6133 25.957C42.4648 25.5664 42.25 25.2461 41.9688 24.9961C41.6953 24.7383 41.3359 24.5391 40.8906 24.3984C40.4453 24.25 39.9023 24.1484 39.2617 24.0938C38.6289 24.0391 37.875 24.0117 37 24.0117C36.25 24.0117 35.582 24.0312 34.9961 24.0703C34.4102 24.1016 33.8945 24.1797 33.4492 24.3047C33.0039 24.4297 32.625 24.6094 32.3125 24.8438C32.0078 25.0781 31.7578 25.3906 31.5625 25.7812C31.3672 26.1719 31.2227 26.6562 31.1289 27.2344C31.043 27.8125 31 28.5039 31 29.3086C31 30.1055 31.043 30.7891 31.1289 31.3594C31.2227 31.9219 31.3672 32.3945 31.5625 32.7773C31.7578 33.1602 32.0078 33.4688 32.3125 33.7031C32.625 33.9297 33.0039 34.1016 33.4492 34.2188C33.8945 34.3359 34.4102 34.4141 34.9961 34.4531C35.582 34.4844 36.25 34.5 37 34.5Z" fill="#F5F5F5"/>
<path d="M57.625 16H73.4023C74.7057 16 75.804 16.0592 76.6973 16.1777C77.5996 16.2871 78.3424 16.4557 78.9258 16.6836C79.5091 16.9115 79.9557 17.194 80.2656 17.5312C80.5846 17.8685 80.8171 18.265 80.9629 18.7207C81.1087 19.1764 81.1908 19.6868 81.209 20.252C81.2363 20.8171 81.25 21.4414 81.25 22.125C81.25 22.8359 81.2318 23.4922 81.1953 24.0938C81.168 24.6953 81.0632 25.2422 80.8809 25.7344C80.7077 26.2174 80.4251 26.6458 80.0332 27.0195C79.6504 27.3841 79.099 27.6895 78.3789 27.9355C77.668 28.1816 76.7611 28.3685 75.6582 28.4961C74.5645 28.6237 73.2155 28.6875 71.6113 28.6875H60.25V37H57.625V16ZM60.25 26.5H71.6113C72.778 26.5 73.7578 26.4818 74.5508 26.4453C75.3529 26.3997 76.0137 26.3223 76.5332 26.2129C77.0527 26.1035 77.4538 25.9486 77.7363 25.748C78.0189 25.5475 78.224 25.2832 78.3516 24.9551C78.4883 24.627 78.5658 24.235 78.584 23.7793C78.6113 23.3145 78.625 22.763 78.625 22.125C78.625 21.5326 78.6113 21.0221 78.584 20.5938C78.5658 20.1654 78.4883 19.8053 78.3516 19.5137C78.224 19.222 78.0189 18.9896 77.7363 18.8164C77.4538 18.6432 77.0527 18.5111 76.5332 18.4199C76.0137 18.3197 75.3529 18.2559 74.5508 18.2285C73.7578 18.2012 72.778 18.1875 71.6113 18.1875H60.25V26.5ZM84.75 16H87.375V37H84.75V16ZM107.432 34.8398C107.404 34.9492 107.199 35.2227 106.816 35.6602C106.543 35.9883 106.178 36.2799 105.723 36.5352C105.267 36.7812 104.656 36.9727 103.891 37.1094C103.134 37.2552 102.136 37.3281 100.896 37.3281C99.2467 37.3281 97.8385 37.2415 96.6719 37.0684C95.5052 36.9043 94.5527 36.6491 93.8145 36.3027C93.0762 35.9473 92.5339 35.4961 92.1875 34.9492C91.8503 34.4023 91.6816 33.7507 91.6816 32.9941C91.6816 32.2012 91.7728 31.5312 91.9551 30.9844C92.1465 30.4284 92.4199 29.9635 92.7754 29.5898C93.14 29.2161 93.5775 28.9245 94.0879 28.7148C94.5983 28.5052 95.1771 28.3457 95.8242 28.2363C96.4805 28.127 97.196 28.0586 97.9707 28.0312C98.7454 28.0039 99.5703 27.9902 100.445 27.9902C101.694 27.9902 102.738 28.0449 103.576 28.1543C104.415 28.2546 105.098 28.3867 105.627 28.5508C106.165 28.7057 106.57 28.8743 106.844 29.0566C107.117 29.2389 107.313 29.4076 107.432 29.5625C107.432 28.5417 107.386 27.6712 107.295 26.9512C107.213 26.2311 107.072 25.6296 106.871 25.1465C106.68 24.6634 106.429 24.2806 106.119 23.998C105.809 23.7064 105.426 23.4876 104.971 23.3418C104.524 23.196 104 23.1048 103.398 23.0684C102.797 23.0228 102.109 23 101.334 23C100.131 23 99.1328 23.0319 98.3398 23.0957C97.5469 23.1504 96.918 23.2643 96.4531 23.4375C95.9883 23.6107 95.6602 23.8522 95.4688 24.1621C95.2773 24.4629 95.1816 24.8594 95.1816 25.3516H92.5566C92.5566 24.5221 92.7025 23.8203 92.9941 23.2461C93.2949 22.6719 93.7871 22.207 94.4707 21.8516C95.1634 21.487 96.0703 21.2227 97.1914 21.0586C98.3125 20.8945 99.6934 20.8125 101.334 20.8125C102.938 20.8125 104.296 20.9447 105.408 21.209C106.52 21.4733 107.418 21.9382 108.102 22.6035C108.794 23.2689 109.291 24.1667 109.592 25.2969C109.902 26.418 110.057 27.8398 110.057 29.5625V37H107.432V34.8398ZM101.334 35.25C102.492 35.25 103.458 35.1953 104.232 35.0859C105.016 34.9766 105.645 34.8125 106.119 34.5938C106.593 34.375 106.93 34.1016 107.131 33.7734C107.331 33.4453 107.432 33.0625 107.432 32.625C107.432 32.1875 107.313 31.8184 107.076 31.5176C106.848 31.2077 106.461 30.957 105.914 30.7656C105.376 30.5742 104.661 30.4375 103.768 30.3555C102.874 30.2643 101.771 30.2188 100.459 30.2188C99.1465 30.2188 98.0846 30.2415 97.2734 30.2871C96.4714 30.3327 95.8516 30.4375 95.4141 30.6016C94.9766 30.7656 94.6803 31.0072 94.5254 31.3262C94.3796 31.6452 94.3066 32.0781 94.3066 32.625C94.3066 33.1719 94.3841 33.6185 94.5391 33.9648C94.7031 34.3021 95.0312 34.5664 95.5234 34.7578C96.0156 34.9492 96.722 35.0814 97.6426 35.1543C98.5723 35.2181 99.8027 35.25 101.334 35.25ZM121.008 37L112.695 21.25H115.758L122.758 35.25L129.32 21.25H132.383L124.508 37L124.07 37.875C123.852 38.3125 123.633 38.7227 123.414 39.1055C123.204 39.4974 122.963 39.8529 122.689 40.1719C122.416 40.5 122.092 40.7917 121.719 41.0469C121.345 41.3021 120.885 41.5163 120.338 41.6895C119.8 41.8717 119.158 42.0085 118.41 42.0996C117.663 42.1999 116.779 42.25 115.758 42.25V40.0625C116.633 40.0625 117.371 40.026 117.973 39.9531C118.574 39.8893 119.076 39.7891 119.477 39.6523C119.887 39.5247 120.215 39.3698 120.461 39.1875C120.707 39.0052 120.912 38.8001 121.076 38.5723C121.24 38.3444 121.377 38.0983 121.486 37.834C121.605 37.5697 121.737 37.2917 121.883 37H121.008ZM135.883 37V16H153.396C154.709 16 155.766 16.1094 156.568 16.3281C157.37 16.5378 157.986 16.8522 158.414 17.2715C158.852 17.6816 159.143 18.1966 159.289 18.8164C159.435 19.4362 159.508 20.1471 159.508 20.9492C159.508 21.5326 159.458 22.0475 159.357 22.4941C159.257 22.9408 159.125 23.3281 158.961 23.6562C158.797 23.9844 158.61 24.2624 158.4 24.4902C158.191 24.709 157.977 24.8913 157.758 25.0371C157.247 25.3835 156.664 25.5794 156.008 25.625C156.828 25.6706 157.557 25.8711 158.195 26.2266C158.469 26.3815 158.733 26.5775 158.988 26.8145C159.253 27.0423 159.485 27.3294 159.686 27.6758C159.895 28.013 160.064 28.4141 160.191 28.8789C160.319 29.3346 160.383 29.8633 160.383 30.4648C160.383 31.194 160.346 31.8639 160.273 32.4746C160.21 33.0762 160.073 33.6185 159.863 34.1016C159.654 34.5846 159.353 35.0085 158.961 35.373C158.569 35.7376 158.045 36.043 157.389 36.2891C156.742 36.526 155.944 36.7038 154.996 36.8223C154.057 36.9408 152.932 37 151.619 37H135.883ZM150.744 34.8125C151.765 34.8125 152.649 34.7988 153.396 34.7715C154.144 34.735 154.777 34.6667 155.297 34.5664C155.816 34.457 156.236 34.3066 156.555 34.1152C156.874 33.9147 157.12 33.6549 157.293 33.3359C157.475 33.0078 157.598 32.6113 157.662 32.1465C157.726 31.6816 157.758 31.1211 157.758 30.4648C157.758 29.9544 157.726 29.5124 157.662 29.1387C157.598 28.7559 157.475 28.4368 157.293 28.1816C157.12 27.9173 156.874 27.7077 156.555 27.5527C156.236 27.3887 155.816 27.2611 155.297 27.1699C154.777 27.0788 154.144 27.0195 153.396 26.9922C152.649 26.9557 151.765 26.9375 150.744 26.9375H138.508V34.8125H150.744ZM150.744 24.75C151.637 24.75 152.408 24.7318 153.055 24.6953C153.702 24.6589 154.253 24.5905 154.709 24.4902C155.165 24.39 155.534 24.2533 155.816 24.0801C156.099 23.8978 156.318 23.6654 156.473 23.3828C156.637 23.1003 156.746 22.763 156.801 22.3711C156.855 21.9701 156.883 21.4961 156.883 20.9492C156.883 20.3659 156.819 19.8919 156.691 19.5273C156.564 19.1628 156.336 18.8848 156.008 18.6934C155.68 18.4928 155.233 18.3607 154.668 18.2969C154.112 18.224 153.396 18.1875 152.521 18.1875H138.508V24.75H150.744ZM163.445 29.0156C163.445 27.4023 163.618 26.0671 163.965 25.0098C164.311 23.9525 164.867 23.1139 165.633 22.4941C166.398 21.8743 167.392 21.4414 168.613 21.1953C169.835 20.9401 171.32 20.8125 173.07 20.8125C174.82 20.8125 176.306 20.9401 177.527 21.1953C178.749 21.4414 179.742 21.8743 180.508 22.4941C181.273 23.1139 181.829 23.9525 182.176 25.0098C182.522 26.0671 182.695 27.4023 182.695 29.0156C182.695 30.6289 182.522 31.9688 182.176 33.0352C181.829 34.1016 181.273 34.9492 180.508 35.5781C179.742 36.207 178.749 36.6536 177.527 36.918C176.306 37.1732 174.82 37.3008 173.07 37.3008C171.32 37.3008 169.835 37.1732 168.613 36.918C167.392 36.6536 166.398 36.207 165.633 35.5781C164.867 34.9492 164.311 34.1016 163.965 33.0352C163.618 31.9688 163.445 30.6289 163.445 29.0156ZM166.07 29.0156C166.07 29.8906 166.102 30.6517 166.166 31.2988C166.23 31.946 166.348 32.502 166.521 32.9668C166.704 33.4316 166.954 33.8099 167.273 34.1016C167.592 34.3932 168.012 34.6257 168.531 34.7988C169.051 34.972 169.68 35.0905 170.418 35.1543C171.165 35.2181 172.049 35.25 173.07 35.25C173.945 35.25 174.725 35.2318 175.408 35.1953C176.101 35.1497 176.702 35.054 177.213 34.9082C177.732 34.7624 178.174 34.5573 178.539 34.293C178.904 34.0195 179.195 33.6504 179.414 33.1855C179.642 32.7207 179.806 32.151 179.906 31.4766C180.016 30.793 180.07 29.9727 180.07 29.0156C180.07 28.0768 180.016 27.2793 179.906 26.623C179.806 25.9577 179.642 25.4017 179.414 24.9551C179.195 24.5085 178.904 24.1576 178.539 23.9023C178.174 23.638 177.732 23.4421 177.213 23.3145C176.702 23.1777 176.101 23.0911 175.408 23.0547C174.725 23.0182 173.945 23 173.07 23C172.195 23 171.411 23.0182 170.719 23.0547C170.035 23.0911 169.434 23.1777 168.914 23.3145C168.404 23.4421 167.966 23.638 167.602 23.9023C167.237 24.1576 166.941 24.5085 166.713 24.9551C166.494 25.4017 166.33 25.9577 166.221 26.623C166.12 27.2793 166.07 28.0768 166.07 29.0156ZM185.32 29.0156C185.32 27.4023 185.493 26.0671 185.84 25.0098C186.186 23.9525 186.742 23.1139 187.508 22.4941C188.273 21.8743 189.267 21.4414 190.488 21.1953C191.71 20.9401 193.195 20.8125 194.945 20.8125C196.695 20.8125 198.181 20.9401 199.402 21.1953C200.624 21.4414 201.617 21.8743 202.383 22.4941C203.148 23.1139 203.704 23.9525 204.051 25.0098C204.397 26.0671 204.57 27.4023 204.57 29.0156C204.57 30.6289 204.397 31.9688 204.051 33.0352C203.704 34.1016 203.148 34.9492 202.383 35.5781C201.617 36.207 200.624 36.6536 199.402 36.918C198.181 37.1732 196.695 37.3008 194.945 37.3008C193.195 37.3008 191.71 37.1732 190.488 36.918C189.267 36.6536 188.273 36.207 187.508 35.5781C186.742 34.9492 186.186 34.1016 185.84 33.0352C185.493 31.9688 185.32 30.6289 185.32 29.0156ZM187.945 29.0156C187.945 29.8906 187.977 30.6517 188.041 31.2988C188.105 31.946 188.223 32.502 188.396 32.9668C188.579 33.4316 188.829 33.8099 189.148 34.1016C189.467 34.3932 189.887 34.6257 190.406 34.7988C190.926 34.972 191.555 35.0905 192.293 35.1543C193.04 35.2181 193.924 35.25 194.945 35.25C195.82 35.25 196.6 35.2318 197.283 35.1953C197.976 35.1497 198.577 35.054 199.088 34.9082C199.607 34.7624 200.049 34.5573 200.414 34.293C200.779 34.0195 201.07 33.6504 201.289 33.1855C201.517 32.7207 201.681 32.151 201.781 31.4766C201.891 30.793 201.945 29.9727 201.945 29.0156C201.945 28.0768 201.891 27.2793 201.781 26.623C201.681 25.9577 201.517 25.4017 201.289 24.9551C201.07 24.5085 200.779 24.1576 200.414 23.9023C200.049 23.638 199.607 23.4421 199.088 23.3145C198.577 23.1777 197.976 23.0911 197.283 23.0547C196.6 23.0182 195.82 23 194.945 23C194.07 23 193.286 23.0182 192.594 23.0547C191.91 23.0911 191.309 23.1777 190.789 23.3145C190.279 23.4421 189.841 23.638 189.477 23.9023C189.112 24.1576 188.816 24.5085 188.588 24.9551C188.369 25.4017 188.205 25.9577 188.096 26.623C187.995 27.2793 187.945 28.0768 187.945 29.0156ZM207.633 16H210.258V27.4844H211.133L220.758 21.25H224.695L213.539 28.5781L225.133 37H221.195L211.133 29.4531H210.258V37H207.633V16Z" fill="#F5F5F5"/>
</svg>
